<svg xmlns="http://www.w3.org/2000/svg" xml:space="preserve" width="67.8253mm" height="41.5132mm" version="1.1" style="shape-rendering:geometricPrecision; text-rendering:geometricPrecision; image-rendering:optimizeQuality; fill-rule:evenodd; clip-rule:evenodd"
viewBox="0 0 5760 3525"
 xmlns:xlink="http://www.w3.org/1999/xlink">
 <g id="Layer_x0020_1">
  <metadata id="CorelCorpID_0Corel-Layer"/>
  <g id="_2067501908176">
   <path class="fil0 str0" d="M649 3l0 2440 -646 0 0 -2440 646 0zm1001 768l0 1672 -656 0 0 -1672 656 0zm1976 1672l-656 0 0 -1053c0,-87 -13,-142 -40,-166 -27,-24 -60,-36 -101,-36 -119,0 -178,83 -178,250l0 1005 -656 0 0 -1672 609 0 0 236c90,-180 250,-270 481,-270 121,0 223,24 307,70 84,47 144,107 180,181 36,74 54,202 54,385l0 1070zm2071 -1672l-506 572 564 1100 -678 0 -313 -663 -177 203 0 460 -616 0 0 -2440 616 0 0 1097c0,25 -1,125 -3,301 39,-56 79,-106 119,-151l417 -479 577 0z"/>
   <circle class="fil1 str1" cx="1323" cy="337" r="324"/>
   <path class="fil1 str1" d="M1000 2435c218,0 426,0 645,0 0,89 0,210 0,342 0,94 95,162 182,162 87,0 173,-67 174,-161 0,-136 -1,-248 -1,-343l645 0 0 278c1,478 -361,804 -813,804 -478,0 -832,-397 -833,-800 0,-136 1,-196 1,-282z"/>
  </g>
 </g>
</svg>
