<svg xmlns="http://www.w3.org/2000/svg" xml:space="preserve" width="67.7249mm" height="41.5751mm" version="1.1" style="shape-rendering:geometricPrecision; text-rendering:geometricPrecision; image-rendering:optimizeQuality; fill-rule:evenodd; clip-rule:evenodd"
viewBox="0 0 5748 3529"
 xmlns:xlink="http://www.w3.org/1999/xlink">
 <g id="Layer_x0020_1">
  <metadata id="CorelCorpID_0Corel-Layer"/>
  <path class="fil0" d="M646 0l0 2439 -646 0 0 -2439 646 0zm1000 767l0 1672 -656 0 0 -1672 656 0zm1975 1672l-656 0 0 -1053c0,-87 -13,-141 -40,-166 -27,-24 -60,-36 -100,-36 -119,0 -179,84 -179,250l0 1005 -656 0 0 -1672 609 0 0 237c90,-180 250,-271 481,-271 121,0 223,24 307,70 84,47 144,107 180,181 36,74 54,202 54,385l0 1070zm2070 -1672l-506 572 563 1100 -677 0 -313 -664 -177 203 0 461 -615 0 0 -2439 615 0 0 1096c0,25 -1,126 -3,301 39,-55 79,-106 119,-151l417 -479 577 0z"/>
  <circle class="fil1 str0" cx="1319" cy="334" r="323"/>
  <path class="fil2 str0" d="M999 2439c219,0 420,0 639,0 0,89 0,210 0,342 0,94 98,162 185,162 87,0 176,-67 176,-161 0,-136 0,-248 0,-343l639 0 0 278c0,478 -359,804 -811,803 -477,0 -828,-397 -828,-799 0,-136 0,-196 0,-282z"/>
 </g>
</svg>
